<mxfile host="app.diagrams.net" modified="2024-04-20T11:45:31.281Z" agent="Mozilla/5.0 (Windows NT 10.0; Win64; x64) AppleWebKit/537.36 (KHTML, like Gecko) Chrome/124.0.0.0 Safari/537.36" version="24.2.7" etag="3dEbGTnS9xB3zn0cH3g9" type="github">
  <diagram name="Page-1" id="-H9Uq-Sx8S-cED6lqep_">
    <mxGraphModel>
      <root>
        <mxCell id="0" />
        <mxCell id="1" parent="0" />
      </root>
    </mxGraphModel>
  </diagram>
</mxfile>
